<?xml version="1.0" encoding="UTF-8"?>
<svg width="1024mm" height="500mm" version="1.1" viewBox="0 0 1024 500" xmlns="http://www.w3.org/2000/svg">
  <ellipse cx="241.63" cy="250" rx="169.55" ry="172.78" fill="#fff" stroke-width="1.114" style="paint-order:normal"/>
  <path d="m242.31 99.534c-3.6465-0.01653-7.3042 0.10447-10.967 0.36553-17.703 1.2613-34.853 5.7468-50.923 13.209-16.069 7.4622-30.643 17.71-43.192 30.497h1e-3c-27.692 28.219-43.247 66.491-43.248 106.4 3.86e-4 39.907 15.557 78.178 43.249 106.4 27.692 28.219 65.249 44.073 104.41 44.073 12.543 6e-5 23.222 8.5918 32.709 13.299 3.3807 1.6772 6.6108 2.8582 9.8991 3.4764a169.68 172.9 0 0 0 17.898-5.7538c-7.0464-11.26-26.738-30.903-34.547-35.826-4.9851-3.1431-13.353-9.5592-25.958-9.6241-30.202-1.6e-4 -59.166-12.225-80.521-33.986-21.355-21.761-33.352-51.278-33.352-82.052 1.5e-4 -30.776 11.997-60.291 33.352-82.051 9.7229-9.9077 21.023-17.838 33.298-23.538 12.275-5.7008 25.562-9.1897 39.279-10.167 30.128-2.1467 59.858 7.9899 82.651 28.18 22.793 20.19 36.782 48.781 38.889 79.48 2.1066 30.7-7.8408 60.996-27.655 84.222-8.2219 9.7368-8.9598 20.383-9.902 26.278-1.4731 9.2151 0.14419 37.142 3.8438 49.989a169.68 172.9 0 0 0 16.103-10.033c1.6614-2.9009 2.8836-6.1192 3.8449-9.7653 2.7388-10.385 3.3804-24.234 11.61-33.881 25.694-30.118 38.591-69.403 35.859-109.21-2.7318-39.809-20.871-76.882-50.427-103.06-26.785-23.727-60.957-36.747-96.207-36.907z" fill="#c7152b" stroke-width="1.114" style="paint-order:normal"/>
  <ellipse cx="185.52" cy="273.81" rx="20.249" ry="20.633" fill="#c7152b" stroke-width="1.114" style="paint-order:normal"/>
  <ellipse cx="241.63" cy="273.81" rx="20.249" ry="20.633" fill="#c7152b" stroke-width="1.114" style="paint-order:normal"/>
  <ellipse cx="297.76" cy="273.81" rx="20.249" ry="20.633" fill="#c7152b" stroke-width="1.114" style="paint-order:normal"/>
  <text x="488.58063" y="231.33157" fill="#c7152b" font-family="'TeX Gyre Heros'" font-size="109.36px" font-weight="bold" letter-spacing="0px" stroke-width=".26458px" word-spacing="0px" style="font-feature-settings:normal;font-variant-caps:normal;font-variant-ligatures:normal;font-variant-numeric:normal;line-height:125%" xml:space="preserve"><tspan x="488.58063" y="231.33157" fill="#c7152b" font-family="'TeX Gyre Heros'" font-size="158.75px" font-weight="bold" stroke-width=".26458px" style="font-feature-settings:normal;font-variant-caps:normal;font-variant-ligatures:normal;font-variant-numeric:normal">smsQ</tspan></text>
  <text x="488.08743" y="311.05298" fill="#0088cc" font-family="'TeX Gyre Heros'" font-size="63.5px" font-weight="bold" letter-spacing="0px" stroke-width=".26458px" word-spacing="0px" style="font-feature-settings:normal;font-variant-caps:normal;font-variant-ligatures:normal;font-variant-numeric:normal;line-height:125%" xml:space="preserve"><tspan x="488.08743" y="311.05298" fill="#0088cc" font-family="'TeX Gyre Heros'" font-size="70.556px" font-weight="bold" stroke-width=".26458px" style="font-feature-settings:normal;font-variant-caps:normal;font-variant-ligatures:normal;font-variant-numeric:normal">Receive SMS</tspan></text>
  <text x="488.20154" y="379.24445" fill="#0088cc" font-family="sans-serif" font-size="10.583px" letter-spacing="0px" stroke-width=".26458px" word-spacing="0px" style="line-height:125%" xml:space="preserve"><tspan x="488.20154" y="379.24445" fill="#0088cc" font-family="sans-serif" font-size="67.028px" font-weight="bold" stroke-width=".26458px" style="font-feature-settings:normal;font-variant-caps:normal;font-variant-ligatures:normal;font-variant-numeric:normal">in Telegram</tspan></text>
</svg>
