<?xml version="1.0" encoding="UTF-8"?>
<svg width="1024mm" height="500mm" version="1.1" viewBox="0 0 1024 500" xmlns="http://www.w3.org/2000/svg">
  <circle cx="246.63" cy="250" r="153.64" fill="#fff" style="paint-order:normal"/>
  <path d="m247.24 116.2c-3.3042-0.0147-6.6186 0.0929-9.9374 0.32504-16.041 1.1216-31.582 5.1103-46.143 11.746s-27.767 15.748-39.138 27.119h1e-3c-25.093 25.093-39.188 59.126-39.189 94.611 3.5e-4 35.487 14.097 69.519 39.19 94.612s59.125 39.191 94.612 39.191c11.366 5e-5 21.042 7.6401 29.639 11.826 3.0634 1.4914 5.9903 2.5416 8.97 3.0913a153.75 153.75 0 0 0 16.218-5.1165c-6.385-10.013-24.228-27.48-31.304-31.858-4.5172-2.795-12.1-8.5004-23.522-8.5581-27.367-1.4e-4 -53.613-10.871-72.963-30.222-19.351-19.351-30.222-45.598-30.222-72.964 1.4e-4 -27.367 10.871-53.613 30.222-72.963 8.8103-8.8103 19.05-15.862 30.173-20.931 11.123-5.0694 23.163-8.1718 35.592-9.0408 27.3-1.9089 54.24 7.1049 74.893 25.059 20.654 17.954 33.33 43.378 35.239 70.677 1.9089 27.3-7.1049 54.24-25.059 74.893-7.4502 8.6583-8.1188 18.125-8.9726 23.367-1.3348 8.1944 0.13066 33.028 3.483 44.452a153.75 153.75 0 0 0 14.592-8.9219c1.5055-2.5796 2.6129-5.4414 3.484-8.6837 2.4817-9.2344 3.0631-21.55 10.52-30.128 23.282-26.782 34.969-61.716 32.493-97.116-2.4754-35.4-18.912-68.366-45.694-91.648-24.271-21.099-55.236-32.677-87.177-32.819z" fill="#c7152b" style="paint-order:normal"/>
  <circle cx="195.78" cy="271.17" r="18.348" fill="#c7152b" style="paint-order:normal"/>
  <circle cx="246.63" cy="271.17" r="18.348" fill="#c7152b" style="paint-order:normal"/>
  <circle cx="297.49" cy="271.17" r="18.348" fill="#c7152b" style="paint-order:normal"/>
  <text x="480.11383" y="224.4525" fill="#c7152b" font-family="'TeX Gyre Heros'" font-size="109.36px" font-weight="bold" letter-spacing="0px" stroke-width=".26458px" word-spacing="0px" style="font-feature-settings:normal;font-variant-caps:normal;font-variant-ligatures:normal;font-variant-numeric:normal;line-height:125%" xml:space="preserve"><tspan x="480.11383" y="224.4525" fill="#c7152b" font-family="'TeX Gyre Heros'" font-size="158.75px" font-weight="bold" stroke-width=".26458px" style="font-feature-settings:normal;font-variant-caps:normal;font-variant-ligatures:normal;font-variant-numeric:normal">smsQ</tspan></text>
  <text x="479.62064" y="310.5238" fill="#0088cc" font-family="'TeX Gyre Heros'" font-size="63.5px" font-weight="bold" letter-spacing="0px" stroke-width=".26458px" word-spacing="0px" style="font-feature-settings:normal;font-variant-caps:normal;font-variant-ligatures:normal;font-variant-numeric:normal;line-height:125%" xml:space="preserve"><tspan x="479.62064" y="310.5238" fill="#0088cc" font-family="'TeX Gyre Heros'" font-size="70.556px" font-weight="bold" stroke-width=".26458px" style="font-feature-settings:normal;font-variant-caps:normal;font-variant-ligatures:normal;font-variant-numeric:normal">Receive SMS</tspan></text>
  <text x="479.73474" y="378.71527" fill="#0088cc" font-family="sans-serif" font-size="10.583px" letter-spacing="0px" stroke-width=".26458px" word-spacing="0px" style="line-height:125%" xml:space="preserve"><tspan x="479.73474" y="378.71527" fill="#0088cc" font-family="sans-serif" font-size="67.028px" font-weight="bold" stroke-width=".26458px" style="font-feature-settings:normal;font-variant-caps:normal;font-variant-ligatures:normal;font-variant-numeric:normal">in Telegram</tspan></text>
</svg>
