<?xml version="1.0" encoding="UTF-8"?>
<svg width="307.29mm" height="307.29mm" version="1.1" viewBox="0 0 307.29 307.29" xmlns="http://www.w3.org/2000/svg">
  <path d="m154.25 19.844c-3.3042-0.01473-6.6186 0.09292-9.9374 0.32504-16.041 1.1216-31.582 5.1103-46.143 11.746-14.561 6.6357-27.767 15.748-39.138 27.119h0.0011c-25.093 25.093-39.188 59.126-39.189 94.611 3.44e-4 35.487 14.097 69.519 39.19 94.612 25.093 25.093 59.125 39.191 94.612 39.191 11.366 5e-5 21.042 7.6401 29.639 11.826 3.0634 1.4914 5.9903 2.5416 8.97 3.0913a153.75 153.75 0 0 0 16.218-5.1165c-6.385-10.013-24.228-27.48-31.304-31.858-4.5172-2.795-12.1-8.5004-23.522-8.5581-27.367-1.4e-4 -53.613-10.871-72.963-30.222-19.351-19.351-30.222-45.598-30.222-72.964 1.4e-4 -27.367 10.871-53.613 30.222-72.963 8.8103-8.8103 19.05-15.862 30.173-20.931 11.123-5.0694 23.163-8.1718 35.592-9.0408 27.3-1.9089 54.24 7.1049 74.893 25.059 20.654 17.954 33.33 43.378 35.239 70.677 1.9089 27.3-7.1049 54.24-25.059 74.893-7.4502 8.6583-8.1188 18.125-8.9726 23.367-1.3348 8.1944 0.13066 33.028 3.483 44.452a153.75 153.75 0 0 0 14.592-8.9219c1.5055-2.5796 2.6129-5.4414 3.484-8.6837 2.4817-9.2344 3.0631-21.55 10.52-30.128 23.282-26.782 34.969-61.716 32.493-97.116-2.4754-35.4-18.912-68.366-45.694-91.648-24.271-21.099-55.236-32.677-87.177-32.819z" fill="#c7152b" style="paint-order:normal"/>
  <circle cx="102.79" cy="174.81" r="18.348" fill="#c7152b" style="paint-order:normal"/>
  <circle cx="153.64" cy="174.81" r="18.348" fill="#c7152b" style="paint-order:normal"/>
  <circle cx="204.5" cy="174.81" r="18.348" fill="#c7152b" style="paint-order:normal"/>
</svg>
